<?xml version="1.0" encoding="UTF-8" standalone="no"?>
<!DOCTYPE svg PUBLIC "-//W3C//DTD SVG 1.1//EN"
 "http://www.w3.org/Graphics/SVG/1.1/DTD/svg11.dtd">
<!-- Generated by graphviz version 2.43.0 (0)
 -->
<!-- Title: G Pages: 1 -->
<svg width="1726pt" height="609pt"
 viewBox="0.00 0.00 1726.00 609.00" xmlns="http://www.w3.org/2000/svg" xmlns:xlink="http://www.w3.org/1999/xlink">
<g id="graph0" class="graph" transform="scale(1 1) rotate(0) translate(4 605)">
<title>G</title>
<polygon fill="white" stroke="transparent" points="-4,4 -4,-605 1722,-605 1722,4 -4,4"/>
<!-- tenants -->
<g id="node1" class="node">
<title>tenants</title>
<polygon fill="lightblue" stroke="black" points="1470,-299.5 1470,-335.5 1710,-335.5 1710,-299.5 1470,-299.5"/>
<text text-anchor="middle" x="1497.5" y="-315" font-family="Times,serif" font-size="10.00">tenants</text>
<polyline fill="none" stroke="black" points="1525,-299.5 1525,-335.5 "/>
<text text-anchor="middle" x="1547" y="-315" font-family="Times,serif" font-size="10.00">id PK</text>
<polyline fill="none" stroke="black" points="1569,-299.5 1569,-335.5 "/>
<text text-anchor="middle" x="1596.5" y="-315" font-family="Times,serif" font-size="10.00">domain</text>
<polyline fill="none" stroke="black" points="1624,-299.5 1624,-335.5 "/>
<text text-anchor="middle" x="1643.5" y="-315" font-family="Times,serif" font-size="10.00">type</text>
<polyline fill="none" stroke="black" points="1663,-299.5 1663,-335.5 "/>
<text text-anchor="middle" x="1686.5" y="-315" font-family="Times,serif" font-size="10.00">status</text>
</g>
<!-- roles -->
<g id="node2" class="node">
<title>roles</title>
<polygon fill="lightyellow" stroke="black" points="1485.5,-145.5 1485.5,-181.5 1694.5,-181.5 1694.5,-145.5 1485.5,-145.5"/>
<text text-anchor="middle" x="1506" y="-161" font-family="Times,serif" font-size="10.00">roles</text>
<polyline fill="none" stroke="black" points="1526.5,-145.5 1526.5,-181.5 "/>
<text text-anchor="middle" x="1548.5" y="-161" font-family="Times,serif" font-size="10.00">id PK</text>
<polyline fill="none" stroke="black" points="1570.5,-145.5 1570.5,-181.5 "/>
<text text-anchor="middle" x="1593" y="-161" font-family="Times,serif" font-size="10.00">name</text>
<polyline fill="none" stroke="black" points="1615.5,-145.5 1615.5,-181.5 "/>
<text text-anchor="middle" x="1655" y="-161" font-family="Times,serif" font-size="10.00">jenis_tenant</text>
</g>
<!-- tenant_roles -->
<g id="node3" class="node">
<title>tenant_roles</title>
<polygon fill="lightyellow" stroke="black" points="1052,-242.5 1052,-278.5 1326,-278.5 1326,-242.5 1052,-242.5"/>
<text text-anchor="middle" x="1092" y="-258" font-family="Times,serif" font-size="10.00">tenant_roles</text>
<polyline fill="none" stroke="black" points="1132,-242.5 1132,-278.5 "/>
<text text-anchor="middle" x="1154" y="-258" font-family="Times,serif" font-size="10.00">id PK</text>
<polyline fill="none" stroke="black" points="1176,-242.5 1176,-278.5 "/>
<text text-anchor="middle" x="1217" y="-258" font-family="Times,serif" font-size="10.00">tenant_id FK</text>
<polyline fill="none" stroke="black" points="1258,-242.5 1258,-278.5 "/>
<text text-anchor="middle" x="1292" y="-258" font-family="Times,serif" font-size="10.00">role_id FK</text>
</g>
<!-- tenant_roles&#45;&gt;tenants -->
<g id="edge1" class="edge">
<title>tenant_roles&#45;&gt;tenants</title>
<path fill="none" stroke="black" d="M1316.25,-278.54C1361.98,-285.07 1413.67,-292.45 1459.66,-299.02"/>
<polygon fill="black" stroke="black" points="1459.3,-302.51 1469.69,-300.46 1460.29,-295.58 1459.3,-302.51"/>
<text text-anchor="middle" x="1407.5" y="-300.3" font-family="Times,serif" font-size="14.00">tenant_id</text>
</g>
<!-- tenant_roles&#45;&gt;roles -->
<g id="edge2" class="edge">
<title>tenant_roles&#45;&gt;roles</title>
<path fill="none" stroke="black" d="M1284.61,-242.43C1307.09,-237.84 1330.94,-232.72 1353,-227.5 1408.35,-214.41 1470.4,-197.49 1516.98,-184.34"/>
<polygon fill="black" stroke="black" points="1518.01,-187.68 1526.67,-181.59 1516.1,-180.95 1518.01,-187.68"/>
<text text-anchor="middle" x="1407.5" y="-227.3" font-family="Times,serif" font-size="14.00">role_id</text>
</g>
<!-- users -->
<g id="node4" class="node">
<title>users</title>
<polygon fill="lightyellow" stroke="black" points="543,-198.5 543,-234.5 864,-234.5 864,-198.5 543,-198.5"/>
<text text-anchor="middle" x="565" y="-214" font-family="Times,serif" font-size="10.00">users</text>
<polyline fill="none" stroke="black" points="587,-198.5 587,-234.5 "/>
<text text-anchor="middle" x="609" y="-214" font-family="Times,serif" font-size="10.00">id PK</text>
<polyline fill="none" stroke="black" points="631,-198.5 631,-234.5 "/>
<text text-anchor="middle" x="672" y="-214" font-family="Times,serif" font-size="10.00">tenant_id FK</text>
<polyline fill="none" stroke="black" points="713,-198.5 713,-234.5 "/>
<text text-anchor="middle" x="766.5" y="-214" font-family="Times,serif" font-size="10.00">tenant_role_id FK</text>
<polyline fill="none" stroke="black" points="820,-198.5 820,-234.5 "/>
<text text-anchor="middle" x="842" y="-214" font-family="Times,serif" font-size="10.00">email</text>
</g>
<!-- users&#45;&gt;tenants -->
<g id="edge3" class="edge">
<title>users&#45;&gt;tenants</title>
<path fill="none" stroke="black" d="M864.1,-206.52C1048.67,-196.95 1340.4,-188.46 1444,-222.5 1489.02,-237.29 1533.51,-269.83 1561.1,-292.68"/>
<polygon fill="black" stroke="black" points="1558.86,-295.37 1568.76,-299.14 1563.37,-290.02 1558.86,-295.37"/>
<text text-anchor="middle" x="1189" y="-210.3" font-family="Times,serif" font-size="14.00">tenant_id</text>
</g>
<!-- users&#45;&gt;tenant_roles -->
<g id="edge4" class="edge">
<title>users&#45;&gt;tenant_roles</title>
<path fill="none" stroke="black" d="M864.27,-229.83C910.35,-233.78 960.68,-238.21 1007,-242.5 1018.19,-243.54 1029.76,-244.63 1041.4,-245.75"/>
<polygon fill="black" stroke="black" points="1041.34,-249.26 1051.63,-246.74 1042.01,-242.3 1041.34,-249.26"/>
<text text-anchor="middle" x="952.5" y="-246.3" font-family="Times,serif" font-size="14.00">tenant_role_id</text>
</g>
<!-- role_users -->
<g id="node5" class="node">
<title>role_users</title>
<polygon fill="lightyellow" stroke="black" points="43,-104.5 43,-140.5 377,-140.5 377,-104.5 43,-104.5"/>
<text text-anchor="middle" x="77.5" y="-120" font-family="Times,serif" font-size="10.00">role_users</text>
<polyline fill="none" stroke="black" points="112,-104.5 112,-140.5 "/>
<text text-anchor="middle" x="134" y="-120" font-family="Times,serif" font-size="10.00">id PK</text>
<polyline fill="none" stroke="black" points="156,-104.5 156,-140.5 "/>
<text text-anchor="middle" x="191.5" y="-120" font-family="Times,serif" font-size="10.00">user_id FK</text>
<polyline fill="none" stroke="black" points="227,-104.5 227,-140.5 "/>
<text text-anchor="middle" x="261" y="-120" font-family="Times,serif" font-size="10.00">role_id FK</text>
<polyline fill="none" stroke="black" points="295,-104.5 295,-140.5 "/>
<text text-anchor="middle" x="336" y="-120" font-family="Times,serif" font-size="10.00">tenant_id FK</text>
</g>
<!-- role_users&#45;&gt;tenants -->
<g id="edge7" class="edge">
<title>role_users&#45;&gt;tenants</title>
<path fill="none" stroke="black" d="M377.3,-120.31C600.35,-119.5 1008.28,-125.48 1353,-171.5 1394.05,-176.98 1407,-172.9 1444,-191.5 1493.84,-216.56 1540.46,-262.67 1566.78,-291.62"/>
<polygon fill="black" stroke="black" points="1564.38,-294.18 1573.65,-299.29 1569.59,-289.51 1564.38,-294.18"/>
<text text-anchor="middle" x="952.5" y="-142.3" font-family="Times,serif" font-size="14.00">tenant_id</text>
</g>
<!-- role_users&#45;&gt;roles -->
<g id="edge6" class="edge">
<title>role_users&#45;&gt;roles</title>
<path fill="none" stroke="black" d="M377.11,-111.95C397.61,-110.74 418.29,-109.56 438,-108.5 884.47,-84.54 1005.93,-21.01 1444,-110.5 1477,-117.24 1512.55,-130.14 1540.19,-141.52"/>
<polygon fill="black" stroke="black" points="1539.04,-144.84 1549.62,-145.47 1541.75,-138.38 1539.04,-144.84"/>
<text text-anchor="middle" x="952.5" y="-74.3" font-family="Times,serif" font-size="14.00">role_id</text>
</g>
<!-- role_users&#45;&gt;users -->
<g id="edge5" class="edge">
<title>role_users&#45;&gt;users</title>
<path fill="none" stroke="black" d="M305.18,-140.51C389.06,-156.55 511.58,-179.99 598.35,-196.58"/>
<polygon fill="black" stroke="black" points="597.74,-200.03 608.22,-198.47 599.05,-193.15 597.74,-200.03"/>
<text text-anchor="middle" x="473.5" y="-182.3" font-family="Times,serif" font-size="14.00">user_id</text>
</g>
<!-- refresh_tokens -->
<g id="node6" class="node">
<title>refresh_tokens</title>
<polygon fill="lightyellow" stroke="black" points="97.5,-276.5 97.5,-312.5 322.5,-312.5 322.5,-276.5 97.5,-276.5"/>
<text text-anchor="middle" x="143.5" y="-292" font-family="Times,serif" font-size="10.00">refresh_tokens</text>
<polyline fill="none" stroke="black" points="189.5,-276.5 189.5,-312.5 "/>
<text text-anchor="middle" x="220.5" y="-292" font-family="Times,serif" font-size="10.00">token PK</text>
<polyline fill="none" stroke="black" points="251.5,-276.5 251.5,-312.5 "/>
<text text-anchor="middle" x="287" y="-292" font-family="Times,serif" font-size="10.00">user_id FK</text>
</g>
<!-- refresh_tokens&#45;&gt;users -->
<g id="edge8" class="edge">
<title>refresh_tokens&#45;&gt;users</title>
<path fill="none" stroke="black" d="M322.53,-276.8C398.85,-264.69 500.09,-248.62 578.88,-236.12"/>
<polygon fill="black" stroke="black" points="579.53,-239.56 588.86,-234.53 578.43,-232.65 579.53,-239.56"/>
<text text-anchor="middle" x="473.5" y="-262.3" font-family="Times,serif" font-size="14.00">user_id</text>
</g>
<!-- casbin_rule -->
<g id="node7" class="node">
<title>casbin_rule</title>
<polygon fill="lightyellow" stroke="black" points="104,-509.5 104,-545.5 316,-545.5 316,-509.5 104,-509.5"/>
<text text-anchor="middle" x="141.5" y="-525" font-family="Times,serif" font-size="10.00">casbin_rule</text>
<polyline fill="none" stroke="black" points="179,-509.5 179,-545.5 "/>
<text text-anchor="middle" x="201" y="-525" font-family="Times,serif" font-size="10.00">id PK</text>
<polyline fill="none" stroke="black" points="223,-509.5 223,-545.5 "/>
<text text-anchor="middle" x="246" y="-525" font-family="Times,serif" font-size="10.00">ptype</text>
<polyline fill="none" stroke="black" points="269,-509.5 269,-545.5 "/>
<text text-anchor="middle" x="292.5" y="-525" font-family="Times,serif" font-size="10.00">v0..v5</text>
</g>
<!-- modules -->
<g id="node8" class="node">
<title>modules</title>
<polygon fill="lightblue" stroke="black" points="1495,-0.5 1495,-36.5 1685,-36.5 1685,-0.5 1495,-0.5"/>
<text text-anchor="middle" x="1525" y="-16" font-family="Times,serif" font-size="10.00">modules</text>
<polyline fill="none" stroke="black" points="1555,-0.5 1555,-36.5 "/>
<text text-anchor="middle" x="1577" y="-16" font-family="Times,serif" font-size="10.00">id PK</text>
<polyline fill="none" stroke="black" points="1599,-0.5 1599,-36.5 "/>
<text text-anchor="middle" x="1619.5" y="-16" font-family="Times,serif" font-size="10.00">code</text>
<polyline fill="none" stroke="black" points="1640,-0.5 1640,-36.5 "/>
<text text-anchor="middle" x="1662.5" y="-16" font-family="Times,serif" font-size="10.00">name</text>
</g>
<!-- tenant_modules -->
<g id="node9" class="node">
<title>tenant_modules</title>
<polygon fill="lightblue" stroke="black" points="1033.5,-11.5 1033.5,-47.5 1344.5,-47.5 1344.5,-11.5 1033.5,-11.5"/>
<text text-anchor="middle" x="1082.5" y="-27" font-family="Times,serif" font-size="10.00">tenant_modules</text>
<polyline fill="none" stroke="black" points="1131.5,-11.5 1131.5,-47.5 "/>
<text text-anchor="middle" x="1153.5" y="-27" font-family="Times,serif" font-size="10.00">id PK</text>
<polyline fill="none" stroke="black" points="1175.5,-11.5 1175.5,-47.5 "/>
<text text-anchor="middle" x="1216.5" y="-27" font-family="Times,serif" font-size="10.00">tenant_id FK</text>
<polyline fill="none" stroke="black" points="1257.5,-11.5 1257.5,-47.5 "/>
<text text-anchor="middle" x="1301" y="-27" font-family="Times,serif" font-size="10.00">module_id FK</text>
</g>
<!-- tenant_modules&#45;&gt;tenants -->
<g id="edge9" class="edge">
<title>tenant_modules&#45;&gt;tenants</title>
<path fill="none" stroke="black" d="M1344.5,-40.99C1381.53,-50.83 1417.86,-67.55 1444,-95.5 1473.35,-126.89 1441.92,-152.51 1462,-190.5 1484.45,-232.96 1525.85,-270.3 1555.28,-293.31"/>
<polygon fill="black" stroke="black" points="1553.17,-296.1 1563.24,-299.41 1557.43,-290.55 1553.17,-296.1"/>
<text text-anchor="middle" x="1407.5" y="-99.3" font-family="Times,serif" font-size="14.00">tenant_id</text>
</g>
<!-- tenant_modules&#45;&gt;modules -->
<g id="edge10" class="edge">
<title>tenant_modules&#45;&gt;modules</title>
<path fill="none" stroke="black" d="M1344.51,-20.44C1353.47,-20.08 1362.35,-19.76 1371,-19.5 1408.09,-18.39 1448.74,-17.98 1484.78,-17.91"/>
<polygon fill="black" stroke="black" points="1484.83,-21.41 1494.82,-17.89 1484.82,-14.41 1484.83,-21.41"/>
<text text-anchor="middle" x="1407.5" y="-23.3" font-family="Times,serif" font-size="14.00">module_id</text>
</g>
<!-- user_tenant_access -->
<g id="node10" class="node">
<title>user_tenant_access</title>
<polygon fill="lightblue" stroke="black" points="0,-200.5 0,-236.5 420,-236.5 420,-200.5 0,-200.5"/>
<text text-anchor="middle" x="58" y="-216" font-family="Times,serif" font-size="10.00">user_tenant_access</text>
<polyline fill="none" stroke="black" points="116,-200.5 116,-236.5 "/>
<text text-anchor="middle" x="138" y="-216" font-family="Times,serif" font-size="10.00">id PK</text>
<polyline fill="none" stroke="black" points="160,-200.5 160,-236.5 "/>
<text text-anchor="middle" x="195.5" y="-216" font-family="Times,serif" font-size="10.00">user_id FK</text>
<polyline fill="none" stroke="black" points="231,-200.5 231,-236.5 "/>
<text text-anchor="middle" x="272" y="-216" font-family="Times,serif" font-size="10.00">tenant_id FK</text>
<polyline fill="none" stroke="black" points="313,-200.5 313,-236.5 "/>
<text text-anchor="middle" x="366.5" y="-216" font-family="Times,serif" font-size="10.00">tenant_role_id FK</text>
</g>
<!-- user_tenant_access&#45;&gt;tenants -->
<g id="edge12" class="edge">
<title>user_tenant_access&#45;&gt;tenants</title>
<path fill="none" stroke="black" d="M374.83,-200.48C423.72,-195.77 477.48,-191.25 527,-188.5 893.56,-168.17 986.98,-166.08 1353,-194.5 1393.62,-197.65 1406.3,-190.05 1444,-205.5 1492.22,-225.26 1538.11,-265.6 1564.9,-292.08"/>
<polygon fill="black" stroke="black" points="1562.72,-294.86 1572.26,-299.49 1567.69,-289.93 1562.72,-294.86"/>
<text text-anchor="middle" x="952.5" y="-178.3" font-family="Times,serif" font-size="14.00">tenant_id</text>
</g>
<!-- user_tenant_access&#45;&gt;tenant_roles -->
<g id="edge13" class="edge">
<title>user_tenant_access&#45;&gt;tenant_roles</title>
<path fill="none" stroke="black" d="M420.03,-236.12C426.08,-236.59 432.08,-237.05 438,-237.5 642.06,-252.92 693.42,-252.58 898,-257.5 944.78,-258.62 995.81,-259.33 1041.84,-259.77"/>
<polygon fill="black" stroke="black" points="1041.86,-263.27 1051.89,-259.86 1041.92,-256.27 1041.86,-263.27"/>
<text text-anchor="middle" x="703.5" y="-261.3" font-family="Times,serif" font-size="14.00">tenant_role_id</text>
</g>
<!-- user_tenant_access&#45;&gt;users -->
<g id="edge11" class="edge">
<title>user_tenant_access&#45;&gt;users</title>
<path fill="none" stroke="black" d="M420.15,-217.65C457.65,-217.5 496.31,-217.34 532.53,-217.19"/>
<polygon fill="black" stroke="black" points="532.69,-220.69 542.68,-217.15 532.66,-213.69 532.69,-220.69"/>
<text text-anchor="middle" x="473.5" y="-222.3" font-family="Times,serif" font-size="14.00">user_id</text>
</g>
<!-- plans -->
<g id="node11" class="node">
<title>plans</title>
<polygon fill="lightblue" stroke="black" points="1462,-517.5 1462,-553.5 1718,-553.5 1718,-517.5 1462,-517.5"/>
<text text-anchor="middle" x="1484" y="-533" font-family="Times,serif" font-size="10.00">plans</text>
<polyline fill="none" stroke="black" points="1506,-517.5 1506,-553.5 "/>
<text text-anchor="middle" x="1528" y="-533" font-family="Times,serif" font-size="10.00">id PK</text>
<polyline fill="none" stroke="black" points="1550,-517.5 1550,-553.5 "/>
<text text-anchor="middle" x="1572.5" y="-533" font-family="Times,serif" font-size="10.00">name</text>
<polyline fill="none" stroke="black" points="1595,-517.5 1595,-553.5 "/>
<text text-anchor="middle" x="1614.5" y="-533" font-family="Times,serif" font-size="10.00">type</text>
<polyline fill="none" stroke="black" points="1634,-517.5 1634,-553.5 "/>
<text text-anchor="middle" x="1676" y="-533" font-family="Times,serif" font-size="10.00">module_code</text>
</g>
<!-- tenant_plans -->
<g id="node12" class="node">
<title>tenant_plans</title>
<polygon fill="lightblue" stroke="black" points="1035.5,-564.5 1035.5,-600.5 1342.5,-600.5 1342.5,-564.5 1035.5,-564.5"/>
<text text-anchor="middle" x="1077" y="-580" font-family="Times,serif" font-size="10.00">tenant_plans</text>
<polyline fill="none" stroke="black" points="1118.5,-564.5 1118.5,-600.5 "/>
<text text-anchor="middle" x="1159.5" y="-580" font-family="Times,serif" font-size="10.00">tenant_id FK</text>
<polyline fill="none" stroke="black" points="1200.5,-564.5 1200.5,-600.5 "/>
<text text-anchor="middle" x="1236" y="-580" font-family="Times,serif" font-size="10.00">plan_id FK</text>
<polyline fill="none" stroke="black" points="1271.5,-564.5 1271.5,-600.5 "/>
<text text-anchor="middle" x="1307" y="-580" font-family="Times,serif" font-size="10.00">is_primary</text>
</g>
<!-- tenant_plans&#45;&gt;tenants -->
<g id="edge14" class="edge">
<title>tenant_plans&#45;&gt;tenants</title>
<path fill="none" stroke="black" d="M1292.16,-564.49C1356.95,-552.43 1430.95,-537.22 1444,-528.5 1453.15,-522.39 1534.87,-399.54 1571.44,-344.16"/>
<polygon fill="black" stroke="black" points="1574.52,-345.85 1577.11,-335.57 1568.68,-341.99 1574.52,-345.85"/>
<text text-anchor="middle" x="1407.5" y="-552.3" font-family="Times,serif" font-size="14.00">tenant_id</text>
</g>
<!-- tenant_plans&#45;&gt;plans -->
<g id="edge15" class="edge">
<title>tenant_plans&#45;&gt;plans</title>
<path fill="none" stroke="black" d="M1342.55,-580C1376.09,-578.14 1411.33,-575.17 1444,-570.5 1467.56,-567.13 1492.89,-561.67 1515.68,-556.05"/>
<polygon fill="black" stroke="black" points="1516.78,-559.39 1525.62,-553.56 1515.07,-552.6 1516.78,-559.39"/>
<text text-anchor="middle" x="1407.5" y="-581.3" font-family="Times,serif" font-size="14.00">plan_id</text>
</g>
<!-- tenant_subscriptions -->
<g id="node13" class="node">
<title>tenant_subscriptions</title>
<polygon fill="lightblue" stroke="black" points="1029,-442.5 1029,-478.5 1349,-478.5 1349,-442.5 1029,-442.5"/>
<text text-anchor="middle" x="1090.5" y="-458" font-family="Times,serif" font-size="10.00">tenant_subscriptions</text>
<polyline fill="none" stroke="black" points="1152,-442.5 1152,-478.5 "/>
<text text-anchor="middle" x="1174" y="-458" font-family="Times,serif" font-size="10.00">id PK</text>
<polyline fill="none" stroke="black" points="1196,-442.5 1196,-478.5 "/>
<text text-anchor="middle" x="1237" y="-458" font-family="Times,serif" font-size="10.00">tenant_id FK</text>
<polyline fill="none" stroke="black" points="1278,-442.5 1278,-478.5 "/>
<text text-anchor="middle" x="1313.5" y="-458" font-family="Times,serif" font-size="10.00">plan_id FK</text>
</g>
<!-- tenant_subscriptions&#45;&gt;tenants -->
<g id="edge16" class="edge">
<title>tenant_subscriptions&#45;&gt;tenants</title>
<path fill="none" stroke="black" d="M1349.16,-445.32C1381.28,-439.18 1414.29,-430.58 1444,-418.5 1489.01,-400.2 1533.82,-365.89 1561.46,-342.38"/>
<polygon fill="black" stroke="black" points="1563.84,-344.95 1569.12,-335.76 1559.26,-339.65 1563.84,-344.95"/>
<text text-anchor="middle" x="1407.5" y="-443.3" font-family="Times,serif" font-size="14.00">tenant_id</text>
</g>
<!-- tenant_subscriptions&#45;&gt;plans -->
<g id="edge17" class="edge">
<title>tenant_subscriptions&#45;&gt;plans</title>
<path fill="none" stroke="black" d="M1349.25,-465.21C1380.9,-468.16 1413.69,-472.67 1444,-479.5 1477.79,-487.11 1514.15,-501.17 1542.01,-513.3"/>
<polygon fill="black" stroke="black" points="1540.93,-516.65 1551.49,-517.49 1543.76,-510.25 1540.93,-516.65"/>
<text text-anchor="middle" x="1407.5" y="-483.3" font-family="Times,serif" font-size="14.00">plan_id</text>
</g>
<!-- notifications -->
<g id="node14" class="node">
<title>notifications</title>
<polygon fill="lightblue" stroke="black" points="72,-337.5 72,-373.5 348,-373.5 348,-337.5 72,-337.5"/>
<text text-anchor="middle" x="111.5" y="-353" font-family="Times,serif" font-size="10.00">notifications</text>
<polyline fill="none" stroke="black" points="151,-337.5 151,-373.5 "/>
<text text-anchor="middle" x="173" y="-353" font-family="Times,serif" font-size="10.00">id PK</text>
<polyline fill="none" stroke="black" points="195,-337.5 195,-373.5 "/>
<text text-anchor="middle" x="236" y="-353" font-family="Times,serif" font-size="10.00">tenant_id FK</text>
<polyline fill="none" stroke="black" points="277,-337.5 277,-373.5 "/>
<text text-anchor="middle" x="312.5" y="-353" font-family="Times,serif" font-size="10.00">user_id FK</text>
</g>
<!-- notifications&#45;&gt;tenants -->
<g id="edge25" class="edge">
<title>notifications&#45;&gt;tenants</title>
<path fill="none" stroke="black" d="M348.17,-356.35C562.65,-357.13 990.42,-356.51 1353,-342.5 1393.5,-340.94 1403.66,-340.47 1444,-336.5 1449.16,-335.99 1454.42,-335.45 1459.72,-334.87"/>
<polygon fill="black" stroke="black" points="1460.43,-338.31 1469.98,-333.72 1459.65,-331.35 1460.43,-338.31"/>
<text text-anchor="middle" x="952.5" y="-358.3" font-family="Times,serif" font-size="14.00">tenant_id</text>
</g>
<!-- notifications&#45;&gt;users -->
<g id="edge26" class="edge">
<title>notifications&#45;&gt;users</title>
<path fill="none" stroke="black" d="M348.14,-339.2C372.38,-334.62 397.16,-328.82 420,-321.5 462.02,-308.03 476.1,-306.9 509,-277.5 520.03,-267.64 514.73,-257.76 527,-249.5 533.01,-245.45 539.39,-241.87 546.01,-238.7"/>
<polygon fill="black" stroke="black" points="547.47,-241.88 555.19,-234.63 544.63,-235.48 547.47,-241.88"/>
<text text-anchor="middle" x="473.5" y="-320.3" font-family="Times,serif" font-size="14.00">user_id</text>
</g>
<!-- module_usage_logs -->
<g id="node15" class="node">
<title>module_usage_logs</title>
<polygon fill="lightblue" stroke="black" points="1047.5,-297.5 1047.5,-333.5 1330.5,-333.5 1330.5,-297.5 1047.5,-297.5"/>
<text text-anchor="middle" x="1106" y="-313" font-family="Times,serif" font-size="10.00">module_usage_logs</text>
<polyline fill="none" stroke="black" points="1164.5,-297.5 1164.5,-333.5 "/>
<text text-anchor="middle" x="1205.5" y="-313" font-family="Times,serif" font-size="10.00">tenant_id FK</text>
<polyline fill="none" stroke="black" points="1246.5,-297.5 1246.5,-333.5 "/>
<text text-anchor="middle" x="1288.5" y="-313" font-family="Times,serif" font-size="10.00">module_code</text>
</g>
<!-- module_usage_logs&#45;&gt;tenants -->
<g id="edge27" class="edge">
<title>module_usage_logs&#45;&gt;tenants</title>
<path fill="none" stroke="black" d="M1330.67,-316.21C1372.65,-316.42 1418.43,-316.65 1459.65,-316.85"/>
<polygon fill="black" stroke="black" points="1459.72,-320.35 1469.74,-316.9 1459.76,-313.35 1459.72,-320.35"/>
<text text-anchor="middle" x="1407.5" y="-321.3" font-family="Times,serif" font-size="14.00">tenant_id</text>
</g>
<!-- invoices -->
<g id="node16" class="node">
<title>invoices</title>
<polygon fill="lightgreen" stroke="black" points="527,-407.5 527,-443.5 880,-443.5 880,-407.5 527,-407.5"/>
<text text-anchor="middle" x="556" y="-423" font-family="Times,serif" font-size="10.00">invoices</text>
<polyline fill="none" stroke="black" points="585,-407.5 585,-443.5 "/>
<text text-anchor="middle" x="607" y="-423" font-family="Times,serif" font-size="10.00">id PK</text>
<polyline fill="none" stroke="black" points="629,-407.5 629,-443.5 "/>
<text text-anchor="middle" x="670" y="-423" font-family="Times,serif" font-size="10.00">tenant_id FK</text>
<polyline fill="none" stroke="black" points="711,-407.5 711,-443.5 "/>
<text text-anchor="middle" x="767" y="-423" font-family="Times,serif" font-size="10.00">subscription_id FK</text>
<polyline fill="none" stroke="black" points="823,-407.5 823,-443.5 "/>
<text text-anchor="middle" x="851.5" y="-423" font-family="Times,serif" font-size="10.00">number</text>
</g>
<!-- invoices&#45;&gt;tenants -->
<g id="edge18" class="edge">
<title>invoices&#45;&gt;tenants</title>
<path fill="none" stroke="black" d="M880.02,-420.33C1064.09,-413.75 1340.71,-400.28 1444,-376.5 1478.98,-368.45 1516.46,-353 1544.55,-339.93"/>
<polygon fill="black" stroke="black" points="1546.15,-343.04 1553.7,-335.6 1543.16,-336.72 1546.15,-343.04"/>
<text text-anchor="middle" x="1189" y="-418.3" font-family="Times,serif" font-size="14.00">tenant_id</text>
</g>
<!-- invoices&#45;&gt;tenant_subscriptions -->
<g id="edge19" class="edge">
<title>invoices&#45;&gt;tenant_subscriptions</title>
<path fill="none" stroke="black" d="M880.08,-438.21C925.28,-441.48 973.83,-445 1018.71,-448.25"/>
<polygon fill="black" stroke="black" points="1018.6,-451.75 1028.83,-448.98 1019.11,-444.76 1018.6,-451.75"/>
<text text-anchor="middle" x="952.5" y="-451.3" font-family="Times,serif" font-size="14.00">subscription_id</text>
</g>
<!-- invoice_items -->
<g id="node17" class="node">
<title>invoice_items</title>
<polygon fill="lightgreen" stroke="black" points="102.5,-454.5 102.5,-490.5 317.5,-490.5 317.5,-454.5 102.5,-454.5"/>
<text text-anchor="middle" x="145.5" y="-470" font-family="Times,serif" font-size="10.00">invoice_items</text>
<polyline fill="none" stroke="black" points="188.5,-454.5 188.5,-490.5 "/>
<text text-anchor="middle" x="210.5" y="-470" font-family="Times,serif" font-size="10.00">id PK</text>
<polyline fill="none" stroke="black" points="232.5,-454.5 232.5,-490.5 "/>
<text text-anchor="middle" x="275" y="-470" font-family="Times,serif" font-size="10.00">invoice_id FK</text>
</g>
<!-- invoice_items&#45;&gt;invoices -->
<g id="edge20" class="edge">
<title>invoice_items&#45;&gt;invoices</title>
<path fill="none" stroke="black" d="M317.65,-462.3C375.79,-456.74 449.42,-449.7 516.67,-443.27"/>
<polygon fill="black" stroke="black" points="517.35,-446.72 526.97,-442.28 516.69,-439.75 517.35,-446.72"/>
<text text-anchor="middle" x="473.5" y="-454.3" font-family="Times,serif" font-size="14.00">invoice_id</text>
</g>
<!-- payments -->
<g id="node18" class="node">
<title>payments</title>
<polygon fill="lightgreen" stroke="black" points="84,-399.5 84,-435.5 336,-435.5 336,-399.5 84,-399.5"/>
<text text-anchor="middle" x="117.5" y="-415" font-family="Times,serif" font-size="10.00">payments</text>
<polyline fill="none" stroke="black" points="151,-399.5 151,-435.5 "/>
<text text-anchor="middle" x="173" y="-415" font-family="Times,serif" font-size="10.00">id PK</text>
<polyline fill="none" stroke="black" points="195,-399.5 195,-435.5 "/>
<text text-anchor="middle" x="237.5" y="-415" font-family="Times,serif" font-size="10.00">invoice_id FK</text>
<polyline fill="none" stroke="black" points="280,-399.5 280,-435.5 "/>
<text text-anchor="middle" x="308" y="-415" font-family="Times,serif" font-size="10.00">amount</text>
</g>
<!-- payments&#45;&gt;invoices -->
<g id="edge21" class="edge">
<title>payments&#45;&gt;invoices</title>
<path fill="none" stroke="black" d="M336.3,-419.54C391.12,-420.43 456.58,-421.5 516.88,-422.48"/>
<polygon fill="black" stroke="black" points="516.85,-425.98 526.9,-422.64 516.96,-418.98 516.85,-425.98"/>
<text text-anchor="middle" x="473.5" y="-426.3" font-family="Times,serif" font-size="14.00">invoice_id</text>
</g>
<!-- cash_transactions -->
<g id="node19" class="node">
<title>cash_transactions</title>
<polygon fill="lightgreen" stroke="black" points="1025,-498.5 1025,-534.5 1353,-534.5 1353,-498.5 1025,-498.5"/>
<text text-anchor="middle" x="1078.5" y="-514" font-family="Times,serif" font-size="10.00">cash_transactions</text>
<polyline fill="none" stroke="black" points="1132,-498.5 1132,-534.5 "/>
<text text-anchor="middle" x="1154" y="-514" font-family="Times,serif" font-size="10.00">id PK</text>
<polyline fill="none" stroke="black" points="1176,-498.5 1176,-534.5 "/>
<text text-anchor="middle" x="1217" y="-514" font-family="Times,serif" font-size="10.00">tenant_id FK</text>
<polyline fill="none" stroke="black" points="1258,-498.5 1258,-534.5 "/>
<text text-anchor="middle" x="1277.5" y="-514" font-family="Times,serif" font-size="10.00">type</text>
<polyline fill="none" stroke="black" points="1297,-498.5 1297,-534.5 "/>
<text text-anchor="middle" x="1325" y="-514" font-family="Times,serif" font-size="10.00">amount</text>
</g>
<!-- cash_transactions&#45;&gt;tenants -->
<g id="edge22" class="edge">
<title>cash_transactions&#45;&gt;tenants</title>
<path fill="none" stroke="black" d="M1353,-512.2C1391.78,-508.96 1426.87,-503.54 1444,-494.5 1508.08,-460.7 1554.45,-385.22 1575.82,-344.61"/>
<polygon fill="black" stroke="black" points="1579.02,-346.05 1580.47,-335.55 1572.79,-342.85 1579.02,-346.05"/>
<text text-anchor="middle" x="1407.5" y="-513.3" font-family="Times,serif" font-size="14.00">tenant_id</text>
</g>
<!-- ledger_entries -->
<g id="node20" class="node">
<title>ledger_entries</title>
<polygon fill="lightgreen" stroke="black" points="540.5,-533.5 540.5,-569.5 866.5,-569.5 866.5,-533.5 540.5,-533.5"/>
<text text-anchor="middle" x="585.5" y="-549" font-family="Times,serif" font-size="10.00">ledger_entries</text>
<polyline fill="none" stroke="black" points="630.5,-533.5 630.5,-569.5 "/>
<text text-anchor="middle" x="652.5" y="-549" font-family="Times,serif" font-size="10.00">id PK</text>
<polyline fill="none" stroke="black" points="674.5,-533.5 674.5,-569.5 "/>
<text text-anchor="middle" x="727.5" y="-549" font-family="Times,serif" font-size="10.00">transaction_id FK</text>
<polyline fill="none" stroke="black" points="780.5,-533.5 780.5,-569.5 "/>
<text text-anchor="middle" x="823.5" y="-549" font-family="Times,serif" font-size="10.00">account_code</text>
</g>
<!-- ledger_entries&#45;&gt;cash_transactions -->
<g id="edge23" class="edge">
<title>ledger_entries&#45;&gt;cash_transactions</title>
<path fill="none" stroke="black" d="M866.51,-539.77C914.03,-536.33 966.19,-532.56 1014.41,-529.07"/>
<polygon fill="black" stroke="black" points="1014.91,-532.54 1024.64,-528.33 1014.41,-525.56 1014.91,-532.54"/>
<text text-anchor="middle" x="952.5" y="-540.3" font-family="Times,serif" font-size="14.00">transaction_id</text>
</g>
<!-- transaction_history -->
<g id="node21" class="node">
<title>transaction_history</title>
<polygon fill="lightgreen" stroke="black" points="571.5,-478.5 571.5,-514.5 835.5,-514.5 835.5,-478.5 571.5,-478.5"/>
<text text-anchor="middle" x="628.5" y="-494" font-family="Times,serif" font-size="10.00">transaction_history</text>
<polyline fill="none" stroke="black" points="685.5,-478.5 685.5,-514.5 "/>
<text text-anchor="middle" x="707.5" y="-494" font-family="Times,serif" font-size="10.00">id PK</text>
<polyline fill="none" stroke="black" points="729.5,-478.5 729.5,-514.5 "/>
<text text-anchor="middle" x="782.5" y="-494" font-family="Times,serif" font-size="10.00">transaction_id FK</text>
</g>
<!-- transaction_history&#45;&gt;cash_transactions -->
<g id="edge24" class="edge">
<title>transaction_history&#45;&gt;cash_transactions</title>
<path fill="none" stroke="black" d="M835.66,-501.93C890.78,-504.21 955.68,-506.89 1014.65,-509.33"/>
<polygon fill="black" stroke="black" points="1014.69,-512.83 1024.83,-509.75 1014.98,-505.84 1014.69,-512.83"/>
<text text-anchor="middle" x="952.5" y="-512.3" font-family="Times,serif" font-size="14.00">transaction_id</text>
</g>
<!-- status_audits -->
<g id="node22" class="node">
<title>status_audits</title>
<polygon fill="lightgreen" stroke="black" points="39,-564.5 39,-600.5 381,-600.5 381,-564.5 39,-564.5"/>
<text text-anchor="middle" x="81" y="-580" font-family="Times,serif" font-size="10.00">status_audits</text>
<polyline fill="none" stroke="black" points="123,-564.5 123,-600.5 "/>
<text text-anchor="middle" x="145" y="-580" font-family="Times,serif" font-size="10.00">id PK</text>
<polyline fill="none" stroke="black" points="167,-564.5 167,-600.5 "/>
<text text-anchor="middle" x="204" y="-580" font-family="Times,serif" font-size="10.00">entity_type</text>
<polyline fill="none" stroke="black" points="241,-564.5 241,-600.5 "/>
<text text-anchor="middle" x="271.5" y="-580" font-family="Times,serif" font-size="10.00">entity_id</text>
<polyline fill="none" stroke="black" points="302,-564.5 302,-600.5 "/>
<text text-anchor="middle" x="341.5" y="-580" font-family="Times,serif" font-size="10.00">changed_by</text>
</g>
</g>
</svg>
